# xmcd CD database file
#
# Track frame offsets:
#	150
#	32475
#	58189
#	71965
#	99449
#	121130
#	148479
#	181257
#	203344
#	217209
#	244041
#	278769
#	297179
#	320142
#	340554
#
# Disc length: 4752 seconds
#
# Revision: 0
# Processed by: cddbd v1.5.2PL0 Copyright (c) Steve Scherf et al.
# Submitted via: CDex 1.51
#
DISCID=ec128e0f
DTITLE=Herb Ellis - Herb Ellis Four Classic Albums CD1
DYEAR=1900
DGENRE=Jazz
TTITLE0=Pap's Blues ( Nothing But Blues - 1957 )
TTITLE1=Big Red's Boogie Woogie
TTITLE2=Tin Roof Blues
TTITLE3=Soft Winds
TTITLE4=Royal Garden Blues
TTITLE5=Patti Cake
TTITLE6=Blues For Janet
TTITLE7=Blues For Junior
TTITLE8=Goose Grease ( Herb Ellis Meets Jimmy Giuffre - 1959 )
TTITLE9=When Your Lover Has Gone
TTITLE10=Remember
TTITLE11=Patricia
TTITLE12=A Country Boy
TTITLE13=You Know
TTITLE14=My Old Flame
EXTD=
EXTT0=
EXTT1=
EXTT2=
EXTT3=
EXTT4=
EXTT5=
EXTT6=
EXTT7=
EXTT8=
EXTT9=
EXTT10=
EXTT11=
EXTT12=
EXTT13=
EXTT14=
PLAYORDER=
